HIERARCHY
ROOT simHips
{
  OFFSET -164.024 100.189 6.4737
  CHANNELS 6 Xposition Yposition Zposition Zrotation Xrotation Yrotation
  JOINT simSpine
  {
    OFFSET -0.000355721 21.3001 -0.016921
    CHANNELS 3 Zrotation Xrotation Yrotation
    JOINT simLeftArm
    {
      OFFSET 13.5181 21.3012 0
      CHANNELS 3 Zrotation Xrotation Yrotation
      JOINT simLeftForeArm
      {
        OFFSET 24.5783 0 0
        CHANNELS 3 Zrotation Xrotation Yrotation
        JOINT simLeftHand
        {
          OFFSET 24.5783 0 0
          CHANNELS 3 Zrotation Xrotation Yrotation
          End Site
          {
            OFFSET 7.32568 1.52588e-05 0.0169305
          }
        }
      }
    }
    JOINT simHead
    {
      OFFSET 0 27.4458 -0.00489235
      CHANNELS 3 Zrotation Xrotation Yrotation
      End Site
      {
        OFFSET 0 0 0
      }
    }
    JOINT simRightArm
    {
      OFFSET -13.5174 21.3012 0
      CHANNELS 3 Zrotation Xrotation Yrotation
      JOINT simRightForeArm
      {
        OFFSET -24.5783 0 0
        CHANNELS 3 Zrotation Xrotation Yrotation
        JOINT simRightHand
        {
          OFFSET -24.5783 0 0
          CHANNELS 3 Zrotation Xrotation Yrotation
          End Site
          {
            OFFSET -7.32568 1.52588e-05 0.0169305
          }
        }
      }
    }
  }
  JOINT simRightUpLeg
  {
    OFFSET -8.44614 -9.41038 0.835684
    CHANNELS 3 Zrotation Xrotation Yrotation
    JOINT simRightLeg
    {
      OFFSET 0 -40.9639 0
      CHANNELS 3 Zrotation Xrotation Yrotation
      JOINT simRightFoot
      {
        OFFSET 0 -40.9639 0
        CHANNELS 3 Zrotation Xrotation Yrotation
        End Site
        {
          OFFSET 0.50614 -9.67405 14.6709
        }
      }
    }
  }
  JOINT simLeftUpLeg
  {
    OFFSET 8.44614 -9.41038 0.835684
    CHANNELS 3 Zrotation Xrotation Yrotation
    JOINT simLeftLeg
    {
      OFFSET 0 -40.9639 0
      CHANNELS 3 Zrotation Xrotation Yrotation
      JOINT simLeftFoot
      {
        OFFSET 0 -40.9639 0
        CHANNELS 3 Zrotation Xrotation Yrotation
        End Site
        {
          OFFSET -0.50614 -9.67405 14.6709
        }
      }
    }
  }
}
MOTION
Frames:	14
Frame Time:	0.0333333
-164.024 100.189 6.4737 8.4196 3.21488 88.8825 -0.918118 12.1494 3.33693 -87.5657 42.1786 2.13358 10.6497 -2.25563 -21.0482 -0.379946 11.6218 0.758557 4.866 -9.69954 5.75485 86.9657 49.4708 -8.14306 -15.4171 -3.86549 32.5675 0.764617 1.3708 -2.84704 -14.5222 15.453 3.54368 -0.256903 6.91821 -1.35644 0.486229 -15.4058 -7.22248 5.71802 10.462 0.395525 -1.95207 14.1921 0.622674 -1.00314 -10.5331 12.4901 
-163.747 100.18 5.81159 8.9457 4.45898 87.9603 -3.07094 12.0871 4.1575 -87.3816 41.7314 1.93101 10.6632 -2.26263 -21.07 -0.355667 10.9641 0.73871 4.44501 -9.34696 5.98584 88.3794 50.3122 -9.39331 -15.5137 -3.88722 32.7478 0.741014 0.883117 -2.88207 -16.9395 15.824 3.36804 -0.251679 7.06742 -1.24672 0.70747 -15.1028 -6.22448 3.4839 11.9799 0.477936 -1.99182 13.0475 0.64102 -0.772681 -11.1527 12.9726 
-163.681 100.21 5.14477 9.20017 3.84587 86.6273 -2.89597 12.1125 4.92411 -87.7609 41.815 1.85616 11.0975 -2.42839 -21.7982 -0.342915 10.2238 0.699988 3.83068 -9.20998 6.53095 88.3941 49.3754 -9.52564 -15.2288 -3.74369 32.3565 0.51589 1.66107 -2.79453 -17.0153 15.4938 3.64121 -0.273512 7.19396 -1.26648 0.956826 -14.5949 -5.13694 3.41202 12.8716 0.996858 -1.94782 12.3544 0.549918 -0.724009 -11.3158 13.693 
-163.497 100.168 4.4154 9.38233 4.16323 86.1033 -3.55072 11.6734 5.18521 -88.1477 41.5903 1.9712 11.0565 -2.41256 -21.7295 -0.344953 9.82306 0.703763 3.33765 -8.76008 6.77553 88.6958 48.4686 -9.89183 -14.9844 -3.71112 32.1887 0.47035 1.52204 -2.85896 -17.9293 15.596 4.27046 -0.280233 7.01048 -1.19229 0.877335 -14.6397 -5.47739 2.31181 13.7533 0.816185 -1.97153 11.4129 0.548936 -0.497581 -11.9284 14.1671 
-163.378 100.043 3.69689 9.48918 4.6255 85.1479 -4.50449 11.4022 5.75559 -88.2504 41.3852 1.94908 11.0251 -2.40146 -21.6694 -0.329168 10.0266 0.72593 2.81716 -8.51595 6.83632 88.0804 47.9539 -9.25823 -14.6445 -3.61304 31.7389 0.432649 1.59609 -2.87226 -19.2691 15.2283 4.61526 -0.297278 7.16836 -1.10303 0.985591 -14.4635 -4.98254 1.14132 14.2999 1.8651 -1.95378 10.7905 0.565064 -0.43274 -12.1586 14.0867 
-163.213 100.049 2.91262 9.82837 5.82479 84.4116 -6.26729 11.1469 5.99598 -88.6509 40.8061 2.32527 10.9197 -2.36137 -21.4931 -0.340936 10.7509 0.73756 2.71051 -8.08249 7.18275 87.6929 48.2046 -9.03478 -14.6114 -3.58068 31.6107 0.492555 2.04362 -2.84136 -21.4904 15.0609 4.94603 -0.289044 7.44724 -0.945 1.00532 -14.4363 -4.82509 -1.10387 15.2295 2.23348 -1.98491 9.57727 0.613533 -0.304323 -12.3302 14.417 
-163.065 100.082 2.14064 10.0732 6.42718 84.4623 -7.37302 10.9212 5.58842 -88.9593 41.0715 2.84736 10.8363 -2.32749 -21.373 -0.429285 11.4498 0.767159 2.88906 -7.48664 7.32346 87.3648 48.6529 -8.67983 -14.5312 -3.51507 31.3327 0.498823 2.57639 -2.76781 -22.6641 15.2886 5.33113 -0.269863 7.54059 -0.84839 0.898646 -14.5903 -5.2553 -2.09002 15.6755 3.12239 -1.95779 9.20193 0.642446 -0.415451 -12.1517 13.6488 
-163.053 100.109 1.46585 10.331 6.88453 83.3991 -8.41795 10.9135 5.97849 -89.1246 40.5254 2.87964 10.7416 -2.29064 -21.196 -0.382261 11.7542 0.761575 3.39093 -7.38045 7.75057 86.6215 49.2027 -7.94659 -14.487 -3.50297 31.1745 0.538645 3.80842 -2.75506 -23.881 14.5293 5.36232 -0.268916 8.39032 -0.78095 1.00203 -14.6554 -4.6589 -3.50051 16.2911 3.47175 -1.9697 8.41641 0.660147 -0.275134 -12.3409 14.2923 
-163.115 100.051 0.910875 10.1378 6.58696 82.2638 -8.67634 10.576 6.35328 -89.1305 40.5001 3.17347 10.6876 -2.27085 -21.1157 -0.39253 11.5084 0.772933 3.73269 -7.38922 7.96121 85.902 49.6059 -7.15249 -14.4401 -3.47378 31.0064 0.511001 4.08963 -2.71682 -23.7985 13.3369 6.44558 -0.312335 9.11036 -0.750941 0.975232 -14.7138 -4.78611 -3.55688 16.1168 4.93745 -1.91542 8.37818 0.659476 -0.374963 -12.244 13.8503 
-163.207 100.051 0.383916 10.0196 6.559 81.064 -9.27051 10.3769 6.77554 -89.0523 40.3473 3.44694 10.6919 -2.27547 -21.1404 -0.370762 11.5352 0.770641 4.21996 -7.76572 8.49223 85.3128 49.0873 -6.10231 -14.4594 -3.48813 31.0259 0.514767 3.99303 -2.70761 -24.1972 11.6967 6.05783 -0.323088 10.7264 -0.770876 1.16033 -14.7632 -3.88663 -4.37867 16.2962 4.89499 -1.94194 7.55163 0.657364 -0.218643 -12.2516 15.2002 
-163.499 99.9875 -0.0300081 9.76903 6.51682 80.045 -9.86789 10.3731 7.00342 -88.6939 40.665 3.65747 10.7987 -2.32008 -21.3447 -0.322729 11.4144 0.76049 4.49756 -8.66382 8.57399 84.9048 48.3592 -5.02842 -14.6353 -3.56747 31.3394 0.557795 4.14217 -2.73048 -24.095 9.7099 6.95097 -0.358711 12.7551 -0.781563 1.11084 -15.3277 -3.9712 -4.60502 15.7791 5.92302 -1.91939 7.63406 0.680625 -0.298786 -12.0922 15.0451 
-163.765 99.9367 -0.329565 9.87814 6.24264 78.8544 -10.4873 10.7209 7.22721 -87.9224 41.0899 3.63778 10.7116 -2.28638 -21.1984 -0.307108 11.491 0.756959 5.03989 -9.31233 9.14807 84.626 49.6448 -4.30416 -15.3389 -3.77155 32.2127 0.518454 1.57442 -2.69835 -23.845 7.92628 7.32753 -0.382298 14.7947 -0.83167 1.23155 -15.6289 -3.45626 -4.86904 16.1461 6.00887 -1.92207 6.86626 0.663179 -0.139967 -12.2471 15.9892 
-164.099 99.8799 -0.565406 10.1652 6.80688 77.6548 -12.0771 11.2566 7.53176 -86.9057 41.4602 3.51181 10.6595 -2.26953 -21.1 -0.309837 11.9925 0.774146 5.40151 -10.4579 9.52872 85.3092 48.8656 -4.08711 -16.3612 -4.2669 34.0422 0.645883 1.90617 -2.82574 -24.6334 6.1364 8.06205 -0.410714 17.5856 -0.80778 1.47238 -16.7795 -2.28556 -5.80502 15.9728 7.49706 -1.89416 7.2563 0.73595 -0.11568 -12.5943 15.2686 
-164.383 99.8263 -0.679811 10.3569 6.01621 77.0057 -11.9925 11.9122 7.49595 -86.1663 42.7246 3.82436 10.9266 -2.36992 -21.5558 -0.299965 12.131 0.751527 5.33997 -10.9971 10.0405 85.4384 48.86 -3.98823 -16.7282 -4.29755 34.4551 0.637429 0.962604 -2.71234 -23.5894 4.85984 7.78784 -0.356025 19.8985 -0.981546 1.6803 -17.1535 -1.60963 -4.98021 16.1115 8.28668 -1.84519 7.45149 0.714025 -0.195056 -12.504 14.9858 
